<svg width="11" height="13" viewBox="0 0 11 13" fill="none" xmlns="http://www.w3.org/2000/svg">
<path d="M2.9269 8.85714C2.9269 9.33259 2.5452 9.71429 2.06975 9.71429C1.59431 9.71429 1.21261 9.33259 1.21261 8.85714C1.21261 8.3817 1.59431 8 2.06975 8C2.5452 8 2.9269 8.3817 2.9269 8.85714ZM9.78404 8.85714C9.78404 9.33259 9.40234 9.71429 8.9269 9.71429C8.45145 9.71429 8.06976 9.33259 8.06976 8.85714C8.06976 8.3817 8.45145 8 8.9269 8C9.40234 8 9.78404 8.3817 9.78404 8.85714ZM9.47601 6.20536C9.52288 6.47321 9.32199 6.71429 9.05413 6.71429H1.94252C1.67467 6.71429 1.47377 6.47321 1.52065 6.20536L2.00279 3.63393C2.04297 3.43304 2.21708 3.28571 2.42467 3.28571H8.57199C8.77958 3.28571 8.95368 3.43304 8.99386 3.63393L9.47601 6.20536ZM7.96261 2.10714C7.96261 2.28795 7.82199 2.42857 7.64118 2.42857H3.35547C3.18136 2.42857 3.03404 2.28795 3.03404 2.10714C3.03404 1.92634 3.18136 1.78571 3.35547 1.78571H7.64118C7.82199 1.78571 7.96261 1.92634 7.96261 2.10714ZM10.6412 6.96205C10.6412 6.41295 10.6077 6.00446 10.4872 5.46875L9.78404 2.42857C9.65681 1.35714 7.78181 0.714285 5.49833 0.714285C3.21484 0.714285 1.33984 1.35714 1.21261 2.42857L0.522879 5.46875C0.402344 6.00446 0.355469 6.41295 0.355469 6.96205V11H1.21261V11.8571C1.21261 12.3326 1.59431 12.7143 2.06975 12.7143C2.5452 12.7143 2.9269 12.3326 2.9269 11.8571V11H8.06976V11.8571C8.06976 12.3326 8.45145 12.7143 8.9269 12.7143C9.40234 12.7143 9.78404 12.3326 9.78404 11.8571V11H10.6412V6.96205Z" fill="white"/>
</svg>
