<svg width="18" height="18" viewBox="0 0 18 18" fill="none" xmlns="http://www.w3.org/2000/svg">
<path d="M14.5544 0.285713H3.84007C2.06551 0.285713 0.625781 1.72545 0.625781 3.5V14.2143C0.625781 15.9888 2.06551 17.4286 3.84007 17.4286H9.77757V10.7879H7.54542V8.19866H9.77757V6.29018C9.77757 4.08036 11.1392 2.875 13.1146 2.875C14.0521 2.875 14.8669 2.94196 15.1012 2.97545V5.28571L13.7396 5.29688C12.657 5.29688 12.4561 5.79911 12.4561 6.54687V8.19866H15.0119L14.6771 10.7879H12.4561V17.4286H14.5544C16.3289 17.4286 17.7686 15.9888 17.7686 14.2143V3.5C17.7686 1.72545 16.3289 0.285713 14.5544 0.285713Z" fill="#7B7979"/>
</svg>
