<svg width="6" height="13" viewBox="0 0 6 13" fill="none" xmlns="http://www.w3.org/2000/svg">
<path d="M5.14202 2.85714C5.14202 2.7433 5.09515 2.63616 5.01479 2.5558L3.3005 0.841517C3.22015 0.761161 3.113 0.714285 2.99916 0.714285C2.88532 0.714285 2.77818 0.761161 2.69782 0.841517L0.983538 2.5558C0.903181 2.63616 0.856306 2.7433 0.856306 2.85714C0.856306 3.09152 1.0505 3.28571 1.28488 3.28571H2.14202V10.1429H1.28488C1.0505 10.1429 0.856306 10.3371 0.856306 10.5714C0.856306 10.6853 0.903181 10.7924 0.983538 10.8728L2.69782 12.5871C2.77818 12.6674 2.88532 12.7143 2.99916 12.7143C3.113 12.7143 3.22015 12.6674 3.3005 12.5871L5.01479 10.8728C5.09515 10.7924 5.14202 10.6853 5.14202 10.5714C5.14202 10.3371 4.94782 10.1429 4.71345 10.1429H3.85631V3.28571H4.71345C4.94782 3.28571 5.14202 3.09152 5.14202 2.85714Z" fill="black"/>
</svg>
