<svg width="19" height="20" viewBox="0 0 19 20" fill="none" xmlns="http://www.w3.org/2000/svg">
<path d="M5.21244 15.0424C5.34637 14.8973 5.34637 14.6741 5.21244 14.529C5.06736 14.3951 4.84414 14.3951 4.69905 14.529L1.84191 17.3862C1.70798 17.5312 1.70798 17.7545 1.84191 17.8996C1.92003 17.9665 2.00932 18 2.0986 18C2.18789 18 2.27718 17.9665 2.3553 17.8996L5.21244 15.0424ZM7.09861 15.5C7.09861 15.2991 6.94236 15.1429 6.74146 15.1429C6.54057 15.1429 6.38432 15.2991 6.38432 15.5V19.0714C6.38432 19.2723 6.54057 19.4286 6.74146 19.4286C6.94236 19.4286 7.09861 19.2723 7.09861 19.0714V15.5ZM4.59861 13C4.59861 12.7991 4.44235 12.6429 4.24146 12.6429H0.670033C0.469141 12.6429 0.312891 12.7991 0.312891 13C0.312891 13.2009 0.469141 13.3571 0.670033 13.3571H4.24146C4.44235 13.3571 4.59861 13.2009 4.59861 13ZM18.7057 14.4286C18.7057 13.5692 18.3709 12.7656 17.7682 12.1518L14.0182 8.40179C13.8285 8.21205 13.6165 8.06696 13.3932 7.93304L13.1924 10.6004L16.2504 13.6696C16.4513 13.8705 16.5629 14.1384 16.5629 14.4286C16.5629 14.7076 16.4513 14.9754 16.2504 15.1763L14.6098 16.8058C14.208 17.2076 13.4937 17.1964 13.0919 16.7946L10.045 13.7366L7.37762 13.9375C7.51155 14.1607 7.65664 14.3728 7.84637 14.5625L11.5741 18.3013C12.1767 18.9152 12.9915 19.25 13.8508 19.25C14.7102 19.25 15.5138 18.9263 16.1165 18.3237L17.7571 16.6942C18.3709 16.0915 18.7057 15.2879 18.7057 14.4286ZM11.8196 6.34821C11.6857 6.125 11.5406 5.91295 11.3508 5.72321L7.62316 1.98437C7.02048 1.37054 6.20575 1.03571 5.34637 1.03571C4.487 1.03571 3.68343 1.35937 3.08075 1.96205L1.44012 3.59152C0.826283 4.1942 0.491462 4.99777 0.491462 5.85714C0.491462 6.71652 0.826283 7.52009 1.42896 8.13393L5.17896 11.8839C5.36869 12.0737 5.58075 12.2188 5.80396 12.3527L6.00486 9.67411L2.94682 6.61607C2.74593 6.41518 2.63432 6.14732 2.63432 5.85714C2.63432 5.57812 2.74593 5.31027 2.94682 5.10938L4.58744 3.47991C4.78834 3.29018 5.05619 3.17857 5.34637 3.17857C5.63655 3.17857 5.90441 3.29018 6.1053 3.49107L9.15218 6.54911L11.8196 6.34821ZM18.8843 7.28571C18.8843 7.08482 18.7281 6.92857 18.5272 6.92857H14.9557C14.7549 6.92857 14.5986 7.08482 14.5986 7.28571C14.5986 7.48661 14.7549 7.64286 14.9557 7.64286H18.5272C18.7281 7.64286 18.8843 7.48661 18.8843 7.28571ZM12.8129 1.21429C12.8129 1.01339 12.6566 0.857141 12.4557 0.857141C12.2549 0.857141 12.0986 1.01339 12.0986 1.21429V4.78571C12.0986 4.98661 12.2549 5.14286 12.4557 5.14286C12.6566 5.14286 12.8129 4.98661 12.8129 4.78571V1.21429ZM17.3553 2.89955C17.4892 2.75446 17.4892 2.53125 17.3553 2.38616C17.2102 2.25223 16.987 2.25223 16.8419 2.38616L13.9848 5.2433C13.8508 5.38839 13.8508 5.61161 13.9848 5.7567C14.0629 5.82366 14.1522 5.85714 14.2415 5.85714C14.3307 5.85714 14.42 5.82366 14.4982 5.7567L17.3553 2.89955Z" fill="#2B2B2B"/>
</svg>
