<svg width="18" height="18" viewBox="0 0 18 18" fill="none" xmlns="http://www.w3.org/2000/svg">
<path d="M14.5544 0.285713H3.84007C2.06551 0.285713 0.625781 1.72545 0.625781 3.5V14.2143C0.625781 15.9888 2.06551 17.4286 3.84007 17.4286H5.88248C5.81551 16.8147 5.71507 15.6205 5.9606 14.5938C5.9606 14.5938 6.12801 13.9018 7.05435 9.97321C6.7865 9.42634 6.7865 8.62277 6.7865 8.62277C6.7865 7.37277 7.51194 6.43527 8.41596 6.43527C9.18605 6.43527 9.55435 7.01562 9.55435 7.70759C9.55435 8.47768 9.06328 9.63839 8.80658 10.7098C8.59453 11.6138 9.26417 12.3504 10.1459 12.3504C11.753 12.3504 12.8356 10.2857 12.8356 7.84152C12.8356 5.97768 11.5856 4.59375 9.30882 4.59375C6.74185 4.59375 5.13471 6.50223 5.13471 8.64509C5.13471 9.39286 5.35792 9.90625 5.69275 10.3192C5.849 10.4978 5.87132 10.5759 5.81551 10.7879C5.77087 10.9442 5.68158 11.3237 5.6481 11.4687C5.5923 11.6808 5.41373 11.7589 5.224 11.6808C4.04096 11.1897 3.48292 9.89509 3.48292 8.4442C3.48292 6.03348 5.51417 3.14286 9.54319 3.14286C12.7798 3.14286 14.9115 5.48661 14.9115 7.99777C14.9115 11.3237 13.0588 13.8125 10.3356 13.8125C9.42042 13.8125 8.56105 13.3214 8.25971 12.7522C7.76864 14.7054 7.66819 15.0848 7.66819 15.0848C7.43382 16 6.83114 16.904 6.46283 17.4286H14.5544C16.3289 17.4286 17.7686 15.9888 17.7686 14.2143V3.5C17.7686 1.72545 16.3289 0.285713 14.5544 0.285713Z" fill="#7B7979"/>
</svg>
