<svg width="19" height="15" viewBox="0 0 19 15" fill="none" xmlns="http://www.w3.org/2000/svg">
<path d="M18.3932 2.41071C17.7459 2.68973 17.0428 2.89062 16.3174 2.96875C17.0651 2.52232 17.6343 1.8192 17.9022 0.982143C17.2102 1.39509 16.429 1.69643 15.6142 1.85268C14.9557 1.14955 14.0182 0.714285 12.9803 0.714285C10.9825 0.714285 9.37539 2.33259 9.37539 4.3192C9.37539 4.59821 9.40887 4.87723 9.46468 5.14509C6.47361 4.98884 3.80619 3.56027 2.03164 1.37277C1.71914 1.90848 1.54057 2.52232 1.54057 3.19196C1.54057 4.44196 2.17673 5.54687 3.14771 6.1942C2.55619 6.17187 1.99816 6.00446 1.51825 5.73661C1.51825 5.74777 1.51825 5.77009 1.51825 5.78125C1.51825 7.53348 2.75709 8.98438 4.40887 9.3192C4.10753 9.39732 3.78387 9.44196 3.46021 9.44196C3.22584 9.44196 3.00262 9.41964 2.77941 9.38616C3.237 10.8147 4.56512 11.8527 6.14994 11.8862C4.91111 12.8571 3.35977 13.4263 1.6745 13.4263C1.37316 13.4263 1.09414 13.4152 0.803962 13.3817C2.39994 14.4085 4.29727 15 6.33968 15C12.9691 15 16.5964 9.50893 16.5964 4.7433C16.5964 4.58705 16.5964 4.4308 16.5852 4.27455C17.2883 3.76116 17.9022 3.125 18.3932 2.41071Z" fill="#7B7979"/>
</svg>
