<svg width="81" height="39" viewBox="0 0 81 39" fill="none" xmlns="http://www.w3.org/2000/svg">
<path d="M3.14648 0.0117188V12.4141C3.14648 13.1302 3.13021 13.7975 3.09766 14.416C3.08138 15.0345 3.04883 15.6611 3 16.2959H3.1709C3.61035 15.2868 4.23698 14.3835 5.05078 13.5859C5.88086 12.7884 6.89811 12.1536 8.10254 11.6816C9.32324 11.2096 10.7311 10.9736 12.3262 10.9736C14.3444 10.9736 16.0371 11.3236 17.4043 12.0234C18.7878 12.707 19.8376 13.7568 20.5537 15.1729C21.2699 16.5889 21.6279 18.4118 21.6279 20.6416V38H19.1865V20.7881C19.1865 18.1514 18.5843 16.2145 17.3799 14.9775C16.1755 13.7406 14.4258 13.1221 12.1309 13.1221C10.1777 13.1221 8.53385 13.5046 7.19922 14.2695C5.86458 15.0182 4.85547 16.1576 4.17188 17.6875C3.48828 19.2012 3.14648 21.0973 3.14648 23.376V38H0.680664V0.0117188H3.14648ZM40.2803 10.9492C42.5426 10.9492 44.4225 11.4782 45.9199 12.5361C47.4336 13.5941 48.5566 15.0426 49.2891 16.8818C50.0378 18.721 50.4121 20.8288 50.4121 23.2051V24.9873H31.2471C31.2471 28.6331 32.0853 31.4326 33.7617 33.3857C35.4544 35.3389 37.8714 36.3154 41.0127 36.3154C42.6566 36.3154 44.0807 36.1852 45.2852 35.9248C46.5059 35.6481 47.8568 35.1842 49.3379 34.5332V36.8037C48.0358 37.3896 46.7337 37.8128 45.4316 38.0732C44.1296 38.3499 42.6322 38.4883 40.9395 38.4883C38.2539 38.4883 35.9997 37.9349 34.1768 36.8281C32.3701 35.7051 31.0029 34.1263 30.0752 32.0918C29.1637 30.0573 28.708 27.681 28.708 24.9629C28.708 22.3099 29.1475 19.9255 30.0264 17.8096C30.9215 15.6937 32.2236 14.0254 33.9326 12.8047C35.6579 11.5677 37.7738 10.9492 40.2803 10.9492ZM40.2559 13.0732C37.7168 13.0732 35.6579 13.9196 34.0791 15.6123C32.5166 17.2887 31.597 19.7139 31.3203 22.8877H47.8486C47.8486 20.9508 47.5719 19.2419 47.0186 17.7607C46.4652 16.2796 45.627 15.1322 44.5039 14.3184C43.3971 13.4883 41.9811 13.0732 40.2559 13.0732ZM68.2832 10.998C68.9831 10.998 69.6423 11.0387 70.2607 11.1201C70.8792 11.2015 71.457 11.3154 71.9941 11.4619L71.6035 13.7324C71.0664 13.5859 70.5212 13.4801 69.9678 13.415C69.4144 13.3337 68.8203 13.293 68.1855 13.293C66.9323 13.293 65.8092 13.529 64.8164 14.001C63.8398 14.473 63.0098 15.1484 62.3262 16.0273C61.6426 16.9062 61.1217 17.9642 60.7637 19.2012C60.4056 20.4382 60.2266 21.8216 60.2266 23.3516V38H57.7363V11.4619H59.8604L60.1045 16.4668H60.251C60.6579 15.4414 61.2275 14.5218 61.96 13.708C62.7087 12.8779 63.612 12.2188 64.6699 11.7305C65.7279 11.2422 66.9323 10.998 68.2832 10.998ZM76.8037 36.2666C76.8037 35.5505 76.9665 35.0052 77.292 34.6309C77.6175 34.2402 78.0977 34.0449 78.7324 34.0449C79.4323 34.0449 79.945 34.2402 80.2705 34.6309C80.596 35.0052 80.7588 35.5505 80.7588 36.2666C80.7588 36.9827 80.596 37.5361 80.2705 37.9268C79.945 38.3174 79.4323 38.5127 78.7324 38.5127C78.0977 38.5127 77.6175 38.3174 77.292 37.9268C76.9665 37.5361 76.8037 36.9827 76.8037 36.2666Z" fill="#2B2B2B"/>
</svg>
