<svg width="35" height="41" viewBox="0 0 35 41" fill="none" xmlns="http://www.w3.org/2000/svg">
<path d="M8.92299 27.8571C8.92299 29.442 7.65067 30.7143 6.06585 30.7143C4.48103 30.7143 3.20871 29.442 3.20871 27.8571C3.20871 26.2723 4.48103 25 6.06585 25C7.65067 25 8.92299 26.2723 8.92299 27.8571ZM31.7801 27.8571C31.7801 29.442 30.5078 30.7143 28.923 30.7143C27.3382 30.7143 26.0659 29.442 26.0659 27.8571C26.0659 26.2723 27.3382 25 28.923 25C30.5078 25 31.7801 26.2723 31.7801 27.8571ZM30.7534 19.0179C30.9096 19.9107 30.24 20.7143 29.3471 20.7143H5.64174C4.74888 20.7143 4.07924 19.9107 4.23549 19.0179L5.84263 10.4464C5.97656 9.77679 6.55692 9.28571 7.24888 9.28571H27.74C28.4319 9.28571 29.0123 9.77679 29.1462 10.4464L30.7534 19.0179ZM25.7087 5.35714C25.7087 5.95982 25.24 6.42857 24.6373 6.42857H10.3516C9.77121 6.42857 9.28013 5.95982 9.28013 5.35714C9.28013 4.75446 9.77121 4.28571 10.3516 4.28571H24.6373C25.24 4.28571 25.7087 4.75446 25.7087 5.35714ZM34.6373 21.5402C34.6373 19.7098 34.5257 18.3482 34.1239 16.5625L31.7801 6.42857C31.356 2.85714 25.106 0.714283 17.4944 0.714283C9.88281 0.714283 3.63281 2.85714 3.20871 6.42857L0.909598 16.5625C0.507812 18.3482 0.351562 19.7098 0.351562 21.5402V35H3.20871V37.8571C3.20871 39.442 4.48103 40.7143 6.06585 40.7143C7.65067 40.7143 8.92299 39.442 8.92299 37.8571V35H26.0659V37.8571C26.0659 39.442 27.3382 40.7143 28.923 40.7143C30.5078 40.7143 31.7801 39.442 31.7801 37.8571V35H34.6373V21.5402Z" fill="#2B2B2B"/>
</svg>
