<svg width="38" height="32" viewBox="0 0 38 32" fill="none" xmlns="http://www.w3.org/2000/svg">
<path d="M34.7115 27C34.7115 28.183 33.7517 29.1429 32.5686 29.1429H5.42578C4.24275 29.1429 3.28292 28.183 3.28292 27V5.57143C3.28292 4.38839 4.24275 3.42857 5.42578 3.42857H12.5686C13.7517 3.42857 14.7115 4.38839 14.7115 5.57143V7C14.7115 8.18304 15.6713 9.14286 16.8544 9.14286H32.5686C33.7517 9.14286 34.7115 10.1027 34.7115 11.2857V27ZM37.5686 11.2857C37.5686 8.54018 35.3142 6.28571 32.5686 6.28571H17.5686V5.57143C17.5686 2.82589 15.3142 0.571427 12.5686 0.571427H5.42578C2.68025 0.571427 0.425781 2.82589 0.425781 5.57143V27C0.425781 29.7455 2.68025 32 5.42578 32H32.5686C35.3142 32 37.5686 29.7455 37.5686 27V11.2857Z" fill="#2B2B2B"/>
</svg>
