<svg width="12" height="11" viewBox="0 0 12 11" fill="none" xmlns="http://www.w3.org/2000/svg">
<path d="M11.1429 3.70536C11.1429 4.9308 9.90402 6.0692 9.88393 6.08929L6 9.83259L2.10938 6.08259C2.09598 6.0692 0.857143 4.9308 0.857143 3.70536C0.857143 1.82366 2.12946 1.42857 3.20089 1.42857C4.19866 1.42857 5.32366 2.5067 5.67188 2.92188C5.83259 3.11607 6.16741 3.11607 6.32812 2.92188C6.67634 2.5067 7.80134 1.42857 8.79911 1.42857C9.87054 1.42857 11.1429 1.82366 11.1429 3.70536ZM12 3.70536C12 1.7433 10.8013 0.571428 8.79911 0.571428C7.62723 0.571428 6.52902 1.49554 6 2.01786C5.47098 1.49554 4.37277 0.571428 3.20089 0.571428C1.19866 0.571428 0 1.7433 0 3.70536C0 5.3125 1.47321 6.65848 1.52679 6.70536L5.70536 10.7366C5.78571 10.817 5.89286 10.8571 6 10.8571C6.10714 10.8571 6.21429 10.817 6.29464 10.7366L10.4665 6.71875C10.5268 6.65848 12 5.3125 12 3.70536Z" fill="black"/>
</svg>
