<svg width="11" height="13" viewBox="0 0 11 13" fill="none" xmlns="http://www.w3.org/2000/svg">
<path d="M9.55646 4.26931C9.61338 4.17072 9.62636 4.05449 9.59695 3.94472L8.96948 1.60296C8.94006 1.49319 8.87071 1.39903 8.77212 1.34211C8.67354 1.28519 8.55731 1.27221 8.44754 1.30163L6.10578 1.9291C5.99601 1.95851 5.90185 2.02786 5.84493 2.12645C5.72774 2.32942 5.79882 2.5947 6.00179 2.71189L6.7441 3.14046L3.31553 9.07892L2.57322 8.65035C2.37025 8.53316 2.10497 8.60424 1.98778 8.80722C1.93086 8.9058 1.91789 9.02203 1.9473 9.1318L2.57477 11.4736C2.60418 11.5833 2.67354 11.6775 2.77212 11.7344C2.87071 11.7913 2.98694 11.8043 3.09671 11.7749L5.43846 11.1474C5.54823 11.118 5.6424 11.0487 5.69932 10.9501C5.81651 10.7471 5.74543 10.4818 5.54245 10.3646L4.80015 9.93606L8.22872 3.9976L8.97102 4.42617C9.174 4.54336 9.43928 4.47228 9.55646 4.26931Z" fill="black"/>
</svg>
