<svg width="16" height="13" viewBox="0 0 16 13" fill="none" xmlns="http://www.w3.org/2000/svg">
<path d="M16 11.2857C16 10.9732 15.7411 10.7143 15.4286 10.7143H0.571429C0.258929 10.7143 0 10.9732 0 11.2857V12.4286C0 12.7411 0.258929 13 0.571429 13H15.4286C15.7411 13 16 12.7411 16 12.4286V11.2857ZM12.5714 7.85714C12.5714 7.54464 12.3125 7.28571 12 7.28571H0.571429C0.258929 7.28571 0 7.54464 0 7.85714V9C0 9.3125 0.258929 9.57143 0.571429 9.57143H12C12.3125 9.57143 12.5714 9.3125 12.5714 9V7.85714ZM14.8571 4.42857C14.8571 4.11607 14.5982 3.85714 14.2857 3.85714H0.571429C0.258929 3.85714 0 4.11607 0 4.42857V5.57143C0 5.88393 0.258929 6.14286 0.571429 6.14286H14.2857C14.5982 6.14286 14.8571 5.88393 14.8571 5.57143V4.42857ZM11.4286 0.999999C11.4286 0.687499 11.1696 0.428571 10.8571 0.428571H0.571429C0.258929 0.428571 0 0.687499 0 0.999999V2.14286C0 2.45536 0.258929 2.71428 0.571429 2.71428H10.8571C11.1696 2.71428 11.4286 2.45536 11.4286 2.14286V0.999999Z" fill="#52BBDC"/>
</svg>
