<svg width="38" height="32" viewBox="0 0 38 32" fill="none" xmlns="http://www.w3.org/2000/svg">
<path d="M37.5686 17.4911C37.5686 8.31696 29.0642 0.571427 18.9972 0.571427C8.93025 0.571427 0.425781 8.31696 0.425781 17.4911C0.425781 19.9241 0.87221 22.2902 1.76507 24.5L2.2115 25.5938L6.34096 26.3304C6.98828 28.7634 9.1981 30.5714 11.8544 30.5714V31.2857C11.8544 31.6875 12.1669 32 12.5686 32H13.9972C14.399 32 14.7115 31.6875 14.7115 31.2857V18.4286C14.7115 18.0268 14.399 17.7143 13.9972 17.7143H12.5686C12.1669 17.7143 11.8544 18.0268 11.8544 18.4286V19.1429C9.7115 19.1429 7.85882 20.3259 6.87667 22.067L5.35882 21.7991C4.93471 20.4152 4.7115 18.9866 4.7115 17.4911C4.7115 10.75 11.3856 4.85714 18.9972 4.85714C26.6088 4.85714 33.2829 10.75 33.2829 17.4911C33.2829 18.9866 33.0597 20.4152 32.6356 21.7991L31.1177 22.067C30.1356 20.3259 28.2829 19.1429 26.1401 19.1429V18.4286C26.1401 18.0268 25.8276 17.7143 25.4258 17.7143H23.9972C23.5954 17.7143 23.2829 18.0268 23.2829 18.4286V31.2857C23.2829 31.6875 23.5954 32 23.9972 32H25.4258C25.8276 32 26.1401 31.6875 26.1401 31.2857V30.5714C28.7963 30.5714 31.0061 28.7634 31.6535 26.3304L35.7829 25.5938L36.2294 24.5C37.1222 22.2902 37.5686 19.9241 37.5686 17.4911Z" fill="#2B2B2B"/>
</svg>
