<svg width="24" height="24" viewBox="0 0 24 24" fill="none" xmlns="http://www.w3.org/2000/svg">
<path d="M16.0714 10.1786C16.0714 13.6244 13.2673 16.4286 9.82143 16.4286C6.37556 16.4286 3.57143 13.6244 3.57143 10.1786C3.57143 6.7327 6.37556 3.92857 9.82143 3.92857C13.2673 3.92857 16.0714 6.7327 16.0714 10.1786ZM23.2143 21.7857C23.2143 21.3114 23.019 20.851 22.6981 20.5301L17.9129 15.745C19.043 14.1127 19.6429 12.1596 19.6429 10.1786C19.6429 4.75167 15.2483 0.357142 9.82143 0.357142C4.39453 0.357142 0 4.75167 0 10.1786C0 15.6055 4.39453 20 9.82143 20C11.8025 20 13.7556 19.4001 15.3878 18.2701L20.173 23.0413C20.4939 23.3761 20.9542 23.5714 21.4286 23.5714C22.4051 23.5714 23.2143 22.7623 23.2143 21.7857Z" fill="#A0A0A0"/>
</svg>
