<svg width="29" height="35" viewBox="0 0 29 35" fill="none" xmlns="http://www.w3.org/2000/svg">
<path d="M24.5084 19.1429C24.5084 22.3795 21.6512 25.3036 19.2628 27.1786C17.4771 28.5848 15.6468 29.6339 14.5084 30.2366V4.85714H24.5084V19.1429ZM28.7941 2C28.7941 1.21875 28.1468 0.571427 27.3655 0.571427H1.65123C0.869978 0.571427 0.222656 1.21875 0.222656 2V19.1429C0.222656 28.5402 13.37 34.4777 13.928 34.7232C14.1066 34.8125 14.3075 34.8571 14.5084 34.8571C14.7093 34.8571 14.9102 34.8125 15.0887 34.7232C15.6468 34.4777 28.7941 28.5402 28.7941 19.1429V2Z" fill="#2B2B2B"/>
</svg>
