<svg width="24" height="20" viewBox="0 0 24 20" fill="none" xmlns="http://www.w3.org/2000/svg">
<path d="M18.6394 6.39286C18.6394 6.63002 18.5417 6.85324 18.3743 7.02065L14.8029 10.5921C14.6355 10.7595 14.4123 10.8571 14.1751 10.8571C13.9379 10.8571 13.7147 10.7595 13.5473 10.5921L9.97587 7.02065C9.80845 6.85324 9.7108 6.63002 9.7108 6.39286C9.7108 5.90458 10.1154 5.5 10.6037 5.5C10.8408 5.5 11.064 5.59766 11.2314 5.76507L13.2822 7.8019V3.71429C13.2822 3.226 13.6868 2.82143 14.1751 2.82143C14.6634 2.82143 15.0679 3.226 15.0679 3.71429V7.8019L17.1187 5.76507C17.2861 5.59766 17.5093 5.5 17.7465 5.5C18.2348 5.5 18.6394 5.90458 18.6394 6.39286ZM9.7108 18C9.7108 17.0095 8.9156 16.2143 7.92508 16.2143C6.93457 16.2143 6.13937 17.0095 6.13937 18C6.13937 18.9905 6.93457 19.7857 7.92508 19.7857C8.9156 19.7857 9.7108 18.9905 9.7108 18ZM22.2108 18C22.2108 17.0095 21.4156 16.2143 20.4251 16.2143C19.4346 16.2143 18.6394 17.0095 18.6394 18C18.6394 18.9905 19.4346 19.7857 20.4251 19.7857C21.4156 19.7857 22.2108 18.9905 22.2108 18ZM23.9965 2.82143C23.9965 2.33315 23.5919 1.92857 23.1037 1.92857H6.34863C6.20912 1.25893 6.19517 0.142857 5.24651 0.142857H1.67508C1.1868 0.142857 0.782227 0.547432 0.782227 1.03571C0.782227 1.52399 1.1868 1.92857 1.67508 1.92857H4.52107L6.99037 13.4102C6.79506 13.8147 6.13937 14.889 6.13937 15.3214C6.13937 15.8097 6.54395 16.2143 7.03223 16.2143H21.3179C21.8062 16.2143 22.2108 15.8097 22.2108 15.3214C22.2108 14.8331 21.8062 14.4286 21.3179 14.4286H8.48312C8.62263 14.1496 8.81794 13.8566 8.81794 13.5357C8.81794 13.2148 8.69238 12.8661 8.63658 12.5592L23.2013 10.8571C23.6617 10.8013 23.9965 10.4107 23.9965 9.96429V2.82143Z" fill="#A0A0A0"/>
</svg>
