<svg width="12" height="10" viewBox="0 0 12 10" fill="none" xmlns="http://www.w3.org/2000/svg">
<path d="M8.57143 3.42857C8.57143 3.54241 8.52455 3.64955 8.4442 3.72991L6.72991 5.4442C6.64955 5.52455 6.54241 5.57143 6.42857 5.57143C6.31473 5.57143 6.20759 5.52455 6.12723 5.4442L4.41295 3.72991C4.33259 3.64955 4.28571 3.54241 4.28571 3.42857C4.28571 3.1942 4.47991 3 4.71429 3C4.82813 3 4.93527 3.04687 5.01563 3.12723L6 4.10491V2.14286C6 1.90848 6.1942 1.71429 6.42857 1.71429C6.66295 1.71429 6.85714 1.90848 6.85714 2.14286V4.10491L7.84152 3.12723C7.92188 3.04687 8.02902 3 8.14286 3C8.37723 3 8.57143 3.1942 8.57143 3.42857ZM4.28571 9C4.28571 8.52455 3.90402 8.14286 3.42857 8.14286C2.95313 8.14286 2.57143 8.52455 2.57143 9C2.57143 9.47545 2.95313 9.85714 3.42857 9.85714C3.90402 9.85714 4.28571 9.47545 4.28571 9ZM10.2857 9C10.2857 8.52455 9.90402 8.14286 9.42857 8.14286C8.95313 8.14286 8.57143 8.52455 8.57143 9C8.57143 9.47545 8.95313 9.85714 9.42857 9.85714C9.90402 9.85714 10.2857 9.47545 10.2857 9ZM11.1429 1.71429C11.1429 1.47991 10.9487 1.28571 10.7143 1.28571H2.67188C2.60491 0.964286 2.59821 0.428571 2.14286 0.428571H0.428571C0.194196 0.428571 0 0.622767 0 0.857142C0 1.09152 0.194196 1.28571 0.428571 1.28571H1.79464L2.97991 6.79687C2.88616 6.99107 2.57143 7.5067 2.57143 7.71429C2.57143 7.94866 2.76563 8.14286 3 8.14286H9.85714C10.0915 8.14286 10.2857 7.94866 10.2857 7.71429C10.2857 7.47991 10.0915 7.28571 9.85714 7.28571H3.69643C3.76339 7.15179 3.85714 7.01116 3.85714 6.85714C3.85714 6.70312 3.79688 6.53571 3.77009 6.38839L10.7612 5.57143C10.9821 5.54464 11.1429 5.35714 11.1429 5.14286V1.71429Z" fill="black"/>
</svg>
