<svg width="22" height="26" viewBox="0 0 22 26" fill="none" xmlns="http://www.w3.org/2000/svg">
<path d="M16.755 11.5089C17.4526 10.4068 17.8571 9.10938 17.8571 7.71429C17.8571 3.78013 14.6484 0.571427 10.7143 0.571427C6.78013 0.571427 3.57143 3.78013 3.57143 7.71429C3.57143 9.10938 3.976 10.4068 4.67355 11.5089C2.70647 12.0809 0 14.0201 0 20.3677C0 23.2416 2.13449 25.5714 4.75725 25.5714H16.6713C19.2941 25.5714 21.4286 23.2416 21.4286 20.3677C21.4286 14.0201 18.7221 12.0809 16.755 11.5089ZM10.7143 2.35714C13.6719 2.35714 16.0714 4.7567 16.0714 7.71429C16.0714 10.6719 13.6719 13.0714 10.7143 13.0714C7.7567 13.0714 5.35714 10.6719 5.35714 7.71429C5.35714 4.7567 7.7567 2.35714 10.7143 2.35714ZM16.6713 23.7857H4.75725C3.125 23.7857 1.78571 22.2651 1.78571 20.3677C1.78571 15.9732 3.26451 13.2249 6.02679 13.0854C7.28237 14.1875 8.91462 14.8571 10.7143 14.8571C12.514 14.8571 14.1462 14.1875 15.4018 13.0854C18.1641 13.2249 19.6429 15.9732 19.6429 20.3677C19.6429 22.2651 18.3036 23.7857 16.6713 23.7857Z" fill="#A0A0A0"/>
</svg>
