<svg width="11" height="11" viewBox="0 0 11 11" fill="none" xmlns="http://www.w3.org/2000/svg">
<path d="M7.28571 5.71429C7.28571 5.57366 7.21875 5.44643 7.10491 5.36607L4.10491 3.22321C3.97768 3.12946 3.80357 3.11607 3.66295 3.18973C3.51562 3.26339 3.42857 3.41071 3.42857 3.57143V7.85714C3.42857 8.01786 3.51562 8.16518 3.66295 8.23884C3.80357 8.3125 3.97768 8.29911 4.10491 8.20536L7.10491 6.0625C7.21875 5.98214 7.28571 5.85491 7.28571 5.71429ZM8.57143 8.92857C8.57143 9.04911 8.47768 9.14286 8.35714 9.14286H1.92857C1.80804 9.14286 1.71429 9.04911 1.71429 8.92857V2.5C1.71429 2.37946 1.80804 2.28571 1.92857 2.28571H8.35714C8.47768 2.28571 8.57143 2.37946 8.57143 2.5V8.92857ZM10.2857 2.5C10.2857 1.43527 9.42188 0.571428 8.35714 0.571428H1.92857C0.863839 0.571428 0 1.43527 0 2.5V8.92857C0 9.9933 0.863839 10.8571 1.92857 10.8571H8.35714C9.42188 10.8571 10.2857 9.9933 10.2857 8.92857V2.5Z" fill="black"/>
</svg>
